<svg width="134" height="86" viewBox="0 0 134 86" fill="none" xmlns="http://www.w3.org/2000/svg">
<path d="M61.3727 1.11695C62.869 1.67626 63.999 2.50404 64.7672 3.60476C65.5354 4.70101 65.9195 5.96728 65.9195 7.39912C65.9195 9.10837 65.254 10.482 63.9275 11.5201C63.6283 11.7528 63.4228 11.9631 63.3112 12.16C63.195 12.3568 63.1414 12.5582 63.1414 12.764C63.1414 12.9609 63.2084 13.1533 63.3469 13.3368C63.4853 13.5202 63.731 13.735 64.0838 13.9766C64.9324 14.518 65.5622 15.1623 65.982 15.9096C66.4019 16.6523 66.6073 17.6099 66.6073 18.7777C66.6073 21.2387 65.7677 23.1269 64.0883 24.4514C62.4089 25.7758 60.082 26.4336 57.1029 26.4336H55.2493C53.9988 26.4336 52.9402 26.3351 52.0693 26.1382C51.1983 25.9414 50.5016 25.5476 49.9746 24.9525C49.4475 24.3574 49.0634 23.4715 48.8222 22.2947C48.581 21.1179 48.4604 19.5518 48.4604 17.6009L48.4962 9.68558C48.4962 7.83762 48.6078 6.34314 48.8312 5.20662C49.0545 4.0701 49.4073 3.18863 49.8897 2.56668C50.3721 1.94473 50.9974 1.49728 51.77 1.22434C52.5427 0.951392 53.4851 0.763464 54.5972 0.660551L55.888 0.575536C58.0542 0.378659 59.881 0.562112 61.3772 1.12142L61.3727 1.11695ZM58.0319 9.81981C58.3624 9.52002 58.5321 9.08152 58.5321 8.50431C58.5321 7.26936 57.8979 6.74137 56.625 6.9293H56.5223C55.6647 7.05458 55.2181 7.55125 55.1823 8.4193L55.1466 9.11284C55.1332 9.5066 55.1913 9.77954 55.3163 9.93615C55.4414 10.0928 55.6469 10.1778 55.9327 10.1867L56.759 10.2404C57.2726 10.2628 57.6969 10.1241 58.0319 9.82429V9.81981ZM56.3481 20.2498H57.0538C57.5897 20.2498 58.0364 20.0753 58.3847 19.7308C58.7331 19.3863 58.9073 18.9567 58.9073 18.4511C58.9073 17.8157 58.7153 17.3235 58.3311 16.97C57.947 16.6165 57.4066 16.4689 56.7054 16.5271L56.3257 16.545C55.5352 16.6121 55.1421 16.979 55.1421 17.6367V18.988C55.1421 19.4489 55.2717 19.7755 55.5307 19.9679C55.7898 20.1603 56.0622 20.2543 56.3481 20.2543V20.2498Z" fill="#B000F9"/>
<path d="M68.9029 10.0973C68.8895 8.10164 69.0012 6.47741 69.2379 5.22903C69.4746 3.98065 69.8721 3.02311 70.4304 2.35194C70.9932 1.68076 71.7525 1.22884 72.7083 0.991694C73.6641 0.754547 74.8566 0.642685 76.2903 0.656108L79.4346 0.794817C80.9711 0.80824 82.0787 1.1125 82.7665 1.71209C83.4544 2.31167 83.7983 3.06338 83.7983 3.96275C83.7983 4.86212 83.5258 5.4975 82.9809 6.00759C82.436 6.51768 81.5026 6.83984 80.1716 6.97855L77.5587 7.09936C76.929 7.1441 76.5091 7.26044 76.2948 7.43495C76.0804 7.61392 75.9642 7.93609 75.9419 8.39696L75.8883 9.47083C75.8749 9.9675 75.991 10.321 76.2322 10.5358C76.4734 10.7505 76.8843 10.8669 77.4694 10.8892L79.4123 10.9743C80.511 11.0101 81.3284 11.2472 81.8599 11.6947C82.3914 12.1376 82.6593 12.7372 82.6593 13.4889C82.6593 14.3659 82.3735 14.9923 81.8018 15.3593C81.2301 15.7306 80.4664 15.9544 79.515 16.0349L77.8133 16.102C77.1032 16.1468 76.594 16.3078 76.2858 16.5763C75.9776 16.8493 75.8437 17.2878 75.8928 17.9008L75.9955 18.9209C76.0402 19.5563 76.1965 19.9903 76.4689 20.2275C76.7369 20.4646 77.2774 20.5944 78.0947 20.6168L79.9483 20.6347C81.449 20.7286 82.5164 21.015 83.1506 21.4938C83.7849 21.9725 84.102 22.6392 84.102 23.4939C84.102 24.523 83.7313 25.3194 82.9943 25.8832C82.2574 26.447 80.9353 26.796 79.0326 26.9213H76.4734C74.9504 27.0153 73.7087 26.9347 72.744 26.6886C71.7837 26.4381 71.0334 25.9503 70.5019 25.2255C69.9704 24.5006 69.5997 23.4581 69.3942 22.1068C69.1888 20.7555 69.0771 19.0283 69.0682 16.9253L68.8984 10.0838L68.9029 10.0973Z" fill="#B000F9"/>
<path d="M100.083 24.684C98.4569 26.1158 96.1388 26.8317 93.124 26.8317C92.2397 26.8317 91.4313 26.7691 90.6943 26.6483C89.9574 26.5275 89.3187 26.3843 88.7782 26.2232C87.7688 25.91 87.0498 25.4491 86.612 24.8361C86.1743 24.2231 85.96 23.4401 85.96 22.478C85.96 21.7398 86.2056 21.0596 86.6969 20.4332C87.1882 19.8113 87.9877 19.498 89.0864 19.498C89.7162 19.498 90.2521 19.5473 90.6943 19.6457C91.1365 19.7441 91.5474 19.8471 91.9315 19.95C92.3156 20.0529 92.731 20.1066 93.1776 20.1066C94.2317 20.1066 94.7587 19.6636 94.7587 18.7732C94.7587 18.2989 94.6158 17.9051 94.3299 17.5874C94.0441 17.2698 93.5349 16.9163 92.8024 16.5225L92.3379 16.2809C90.3683 15.1488 88.872 13.9363 87.8537 12.6431C86.8354 11.35 86.3262 9.76157 86.3262 7.87782C86.3262 5.49739 87.1525 3.69865 88.8095 2.48159C90.4665 1.26454 92.6595 0.656006 95.3974 0.656006C96.246 0.656006 97.0544 0.723123 97.8182 0.857357C98.5864 0.991592 99.2162 1.1482 99.7075 1.33165C100.556 1.62249 101.222 2.06994 101.708 2.674C102.195 3.27805 102.436 3.98949 102.436 4.7949C102.436 5.81061 102.159 6.62944 101.61 7.24692C101.061 7.86439 100.31 8.17313 99.3591 8.17313C98.7293 8.17313 98.0906 8.02995 97.443 7.73911C96.7954 7.45274 96.0942 7.30508 95.3393 7.30508C94.915 7.30508 94.5667 7.408 94.2987 7.6183C94.0307 7.82412 93.8967 8.13286 93.8967 8.53556C93.8967 8.93827 94.0352 9.27386 94.3076 9.57364C94.5845 9.87344 95.0714 10.1911 95.7681 10.5267L96.1969 10.7191C97.8226 11.4216 99.0956 12.1867 100.011 13.0056C100.927 13.8244 101.574 14.7327 101.954 15.7261C102.334 16.7194 102.521 17.838 102.521 19.0864C102.521 21.3863 101.708 23.2477 100.083 24.6795V24.684Z" fill="#B000F9"/>
<path d="M116.13 22.5004C116.108 23.968 115.8 25.0777 115.21 25.8339C114.62 26.5901 113.803 26.9704 112.762 26.9704C111.525 26.9704 110.681 26.5588 110.23 25.7399C109.779 24.9211 109.578 23.6906 109.636 22.0485L110.016 9.71682C110.051 8.93379 109.949 8.37448 109.716 8.04337C109.48 7.71226 109.042 7.53775 108.403 7.51538L107.287 7.53328C106.349 7.48853 105.63 7.15742 105.138 6.53547C104.647 5.91799 104.401 5.16628 104.401 4.27585C104.401 3.07669 104.781 2.16837 105.545 1.55537C106.309 0.942367 107.398 0.673898 108.819 0.741016L118.113 1.12135C119.225 1.16609 120.087 1.45693 120.699 1.99834C121.311 2.53528 121.619 3.22435 121.619 4.07003C121.619 4.91571 121.441 5.66294 121.079 6.31174C120.717 6.96502 119.989 7.34982 118.89 7.46168L117.809 7.5467C117.34 7.59144 116.983 7.74805 116.737 8.00757C116.492 8.26709 116.358 8.72796 116.336 9.38571L116.148 22.5004H116.13Z" fill="#B000F9"/>
<path d="M53.6095 54.0726C51.9837 55.5045 49.6657 56.2204 46.6509 56.2204C45.7665 56.2204 44.9581 56.1577 44.2212 56.0369C43.4842 55.9161 42.8455 55.7729 42.3051 55.6119C41.2957 55.2986 40.5766 54.8378 40.1389 54.2248C39.7012 53.6118 39.4868 52.8287 39.4868 51.8667C39.4868 51.1284 39.7325 50.4483 40.2238 49.8219C40.7151 49.1999 41.5146 48.8867 42.6133 48.8867C43.243 48.8867 43.779 48.9359 44.2212 49.0344C44.6633 49.1328 45.0742 49.2357 45.4584 49.3386C45.8425 49.4416 46.2578 49.4952 46.7045 49.4952C47.7585 49.4952 48.2856 49.0523 48.2856 48.1618C48.2856 47.6876 48.1427 47.2938 47.8568 46.9761C47.571 46.6584 47.0618 46.3049 46.3293 45.9112L45.8648 45.6696C43.8951 44.5375 42.3989 43.3249 41.3806 42.0318C40.3622 40.7387 39.8531 39.1502 39.8531 37.2665C39.8531 34.8861 40.6793 33.0873 42.3364 31.8703C43.9934 30.6532 46.1864 30.0447 48.9243 30.0447C49.7729 30.0447 50.5813 30.1118 51.345 30.246C52.1133 30.3803 52.743 30.5369 53.2343 30.7203C54.0829 31.0112 54.7484 31.4586 55.2353 32.0627C55.7221 32.6667 55.9633 33.3782 55.9633 34.1836C55.9633 35.1993 55.6864 36.0181 55.137 36.6356C54.5876 37.2531 53.8373 37.5618 52.8859 37.5618C52.2562 37.5618 51.6175 37.4186 50.9699 37.1278C50.3222 36.8414 49.621 36.6938 48.8662 36.6938C48.4419 36.6938 48.0935 36.7967 47.8255 37.007C47.5576 37.2128 47.4236 37.5215 47.4236 37.9242C47.4236 38.3269 47.562 38.6625 47.8345 38.9623C48.1114 39.2621 48.5982 39.5798 49.295 39.9154L49.7237 40.1078C51.3495 40.8103 52.6224 41.5754 53.538 42.3942C54.4536 43.2131 55.1013 44.1214 55.4809 45.1147C55.8605 46.1081 56.0481 47.2267 56.0481 48.4751C56.0481 50.7749 55.2353 52.6363 53.6095 54.0682V54.0726Z" fill="#B000F9"/>
<path d="M69.653 51.768C69.6307 53.2356 69.3225 54.3453 68.7329 55.1015C68.1434 55.8577 67.326 56.238 66.2854 56.238C65.0482 56.238 64.204 55.8263 63.7529 55.0075C63.3018 54.1887 63.1008 52.9582 63.1589 51.3161L63.5385 38.9844C63.5743 38.2014 63.4716 37.6421 63.2393 37.3109C63.0026 36.9798 62.5649 36.8053 61.9262 36.783L60.8096 36.8009C59.8717 36.7561 59.1526 36.425 58.6613 35.803C58.17 35.1856 57.9243 34.4339 57.9243 33.5434C57.9243 32.3443 58.304 31.436 59.0677 30.8229C59.8315 30.2099 60.9213 29.9415 62.3416 30.0086L71.6361 30.3889C72.7482 30.4337 73.6102 30.7245 74.2221 31.2659C74.834 31.8029 75.1422 32.4919 75.1422 33.3376C75.1422 34.1833 74.9635 34.9305 74.6018 35.5793C74.24 36.2326 73.512 36.6174 72.4132 36.7293L71.3324 36.8143C70.8634 36.859 70.5061 37.0156 70.2604 37.2751C70.0148 37.5347 69.8808 37.9955 69.8585 38.6533L69.6709 51.768H69.653Z" fill="#B000F9"/>
<path d="M100.609 55.6519C100.149 55.6519 99.7117 55.5579 99.2874 55.3655C98.8631 55.1731 98.4879 54.7928 98.1619 54.22C97.8358 53.6473 97.5902 52.8016 97.4249 51.683C97.2597 50.5644 97.2105 49.0788 97.2775 47.2309L97.3802 39.0873C97.4383 37.1588 97.5857 35.6107 97.8269 34.4428C98.0681 33.275 98.4388 32.3846 98.9345 31.7671C99.4348 31.1496 100.096 30.72 100.927 30.4784C101.757 30.2368 102.789 30.0847 104.026 30.0265L104.66 29.9907C108.006 29.8162 110.578 30.5008 112.383 32.0355C114.187 33.5703 115.089 35.727 115.089 38.4967C115.089 39.5706 114.987 40.461 114.781 41.1724C114.576 41.8839 114.281 42.4835 113.906 42.9756C113.526 43.4678 113.088 43.9377 112.584 44.3896C112.356 44.5954 112.173 44.8102 112.043 45.0205C111.909 45.2353 111.847 45.4724 111.847 45.7409C111.847 46.251 111.985 46.7611 112.258 47.2846C112.454 47.6649 112.718 48.0855 113.057 48.5509C113.397 49.0117 113.781 49.5442 114.218 50.1438C114.585 50.627 114.866 51.1013 115.058 51.5577C115.255 52.0141 115.348 52.5063 115.348 53.0388C115.348 53.8486 115.058 54.5377 114.482 55.1104C113.901 55.6832 113.147 55.9695 112.204 55.9695C111.539 55.9695 110.976 55.8487 110.511 55.6071C110.047 55.3655 109.614 55.0075 109.216 54.5332C108.631 53.8397 108.108 53.0611 107.644 52.1931C107.179 51.325 106.84 50.6807 106.621 50.2512C106.371 49.7411 106.143 49.3876 105.942 49.1862C105.741 48.9849 105.464 48.882 105.107 48.882H105.022C104.634 48.882 104.339 49.0028 104.138 49.2444C103.937 49.486 103.807 49.9066 103.749 50.5107L103.682 52.6763C103.441 54.663 102.418 55.6563 100.605 55.6563L100.609 55.6519ZM104.504 37.0022C104.317 37.2617 104.223 37.7092 104.223 38.3446V38.6041C104.223 39.4811 104.357 40.0628 104.625 40.3447C104.893 40.6265 105.241 40.7697 105.665 40.7697H105.786C107.045 40.7697 107.675 40.1075 107.675 38.7786C107.675 37.3333 107.041 36.6129 105.768 36.6129H105.63C105.067 36.6129 104.692 36.7427 104.504 37.0022Z" fill="#B000F9"/>
<path d="M128.511 51.768C128.489 53.2356 128.18 54.3453 127.591 55.1015C127.001 55.8577 126.184 56.238 125.143 56.238C123.906 56.238 123.062 55.8263 122.611 55.0075C122.16 54.1887 121.959 52.9582 122.017 51.3161L122.396 38.9844C122.432 38.2014 122.329 37.6421 122.097 37.3109C121.86 36.9798 121.423 36.8053 120.784 36.783L119.668 36.8009C118.73 36.7561 118.01 36.425 117.519 35.803C117.028 35.1856 116.782 34.4339 116.782 33.5434C116.782 32.3443 117.162 31.436 117.926 30.8229C118.689 30.2099 119.779 29.9415 121.199 30.0086L130.494 30.3889C131.606 30.4337 132.468 30.7245 133.08 31.2659C133.692 31.8029 134 32.4919 134 33.3376C134 34.1833 133.821 34.9305 133.46 35.5793C133.098 36.2326 132.37 36.6174 131.271 36.7293L130.19 36.8143C129.721 36.859 129.364 37.0156 129.118 37.2751C128.873 37.5347 128.739 37.9955 128.716 38.6533L128.529 51.768H128.511Z" fill="#B000F9"/>
<path d="M32.2427 65.0438C32.2427 62.8245 32.5375 61.3031 33.136 60.4798C33.7389 59.6565 34.5965 59.2672 35.722 59.303C36.4187 59.3254 37.0172 59.491 37.5085 59.7997C38.0043 60.104 38.3839 60.6543 38.6564 61.4418C38.9288 62.2294 39.0673 63.3659 39.0718 64.8469L38.9914 78.7626C39.0092 80.5434 38.8752 81.9036 38.5849 82.8388C38.2946 83.774 37.8837 84.4138 37.3522 84.7449C36.8207 85.0805 36.1865 85.2327 35.454 85.2058C34.7215 85.179 34.1052 84.991 33.6094 84.6376C33.1136 84.2841 32.7384 83.6666 32.4883 82.7851C32.2382 81.9037 32.1042 80.6642 32.0908 79.0713L32.2427 65.0393V65.0438Z" fill="#B000F9"/>
<path d="M62.1765 80.7628C62.1095 82.3916 61.7701 83.5415 61.1626 84.2082C60.5552 84.8794 59.7468 85.215 58.7419 85.215C57.7369 85.215 56.8928 84.8794 56.1916 84.2082C55.4859 83.537 54.8427 82.3423 54.2576 80.6241L51.6805 74.8744C51.5421 74.503 51.3992 74.2525 51.2518 74.1227C51.1044 73.9885 50.9257 73.9214 50.7203 73.9214C50.5014 73.9214 50.3228 74.0109 50.1798 74.1898C50.0369 74.3688 49.9654 74.6955 49.9654 75.1697C49.9654 76.1631 49.9922 77.1788 50.0414 78.2079C50.095 79.2415 50.1173 80.2572 50.1173 81.2461V81.5056C50.1173 82.8345 49.8404 83.7831 49.2821 84.3469C48.7283 84.9107 47.9913 85.1971 47.0757 85.1971C46.3879 85.1971 45.7894 85.036 45.2802 84.7228C44.7711 84.4051 44.3869 83.8144 44.1279 82.9464C43.8688 82.0783 43.7706 80.8165 43.8286 79.152L44.311 64.5473C44.3557 63.1289 44.5477 62.0416 44.8782 61.2899C45.2088 60.5382 45.6509 60.0236 46.2003 59.7417C46.7497 59.4599 47.3615 59.3167 48.0404 59.3167C49.0945 59.3167 49.9431 59.6791 50.5907 60.4084C51.2384 61.1378 51.886 62.3906 52.5425 64.167L54.7087 68.8249C54.8695 69.2187 55.0214 69.4872 55.1643 69.6393C55.3072 69.7914 55.477 69.863 55.669 69.863C55.8611 69.863 56.0129 69.778 56.1156 69.6035C56.2184 69.429 56.272 69.1292 56.272 68.7041C56.272 67.8942 56.2452 67.1336 56.1871 66.4177C56.129 65.7017 56.0799 64.7666 56.0308 63.6122V63.1781C56.0085 61.8403 56.2988 60.8246 56.8973 60.14C57.5002 59.4509 58.2818 59.1108 59.2421 59.1108C60.0103 59.1108 60.6535 59.2809 61.176 59.6209C61.6986 59.961 62.0872 60.5516 62.3462 61.3973C62.6053 62.2385 62.7035 63.4198 62.6455 64.9321L62.181 80.7628H62.1765Z" fill="#B000F9"/>
<path d="M70.1754 65.2495C70.2424 63.4597 70.4523 62.0995 70.8141 61.1643C71.1758 60.2291 71.6314 59.5982 72.1808 59.2626C72.7301 58.9315 73.3286 58.7749 73.9673 58.8018C74.7668 58.8331 75.4457 59.0345 75.9995 59.4058C76.5534 59.7772 76.9464 60.4305 77.1742 61.3657C77.402 62.3008 77.4288 63.6163 77.2546 65.3211L76.7097 75.165C76.6203 76.4089 76.7365 77.2501 77.0581 77.6841C77.3796 78.1181 78.0764 78.315 79.1438 78.2702L80.7964 78.2255C82.2658 78.1629 83.2886 78.4313 83.8693 79.0309C84.4499 79.6305 84.7179 80.5522 84.6732 81.8006C84.633 82.8745 84.2445 83.6486 83.5075 84.1229C82.7661 84.5972 81.6495 84.8298 80.1488 84.8209C79.6664 84.803 79.1617 84.803 78.6257 84.8209C78.0942 84.8343 77.5628 84.8567 77.0313 84.8835C76.5936 84.9014 76.1737 84.9193 75.7762 84.9417C75.3742 84.9596 75.008 84.9641 74.6775 84.9551C73.5207 84.9238 72.5738 84.6553 71.8369 84.1497C71.0999 83.6441 70.5684 82.8163 70.2424 81.6664C69.9163 80.5164 69.7913 78.9593 69.8627 76.9995L70.1843 65.2585L70.1754 65.2495Z" fill="#B000F9"/>
<path d="M87.9787 65.1513C87.8983 62.9319 88.144 61.4061 88.7157 60.5605C89.2874 59.7193 90.136 59.2942 91.2571 59.2942C91.9538 59.2942 92.5568 59.4374 93.0615 59.7282C93.5662 60.0191 93.9681 60.5515 94.2629 61.3301C94.5622 62.1086 94.7364 63.2407 94.7944 64.7173L95.1875 78.6284C95.2679 80.4048 95.1785 81.7695 94.9195 82.7181C94.6604 83.6667 94.2719 84.3155 93.7493 84.669C93.2267 85.0224 92.6014 85.197 91.869 85.197C91.1365 85.197 90.5156 85.0314 90.0065 84.6958C89.4973 84.3602 89.0998 83.7562 88.8229 82.8836C88.5415 82.0111 88.3673 80.7806 88.3003 79.1833L87.9743 65.1513H87.9787Z" fill="#B000F9"/>
<path d="M98.5774 68.2385C98.5104 65.697 98.7025 63.7596 99.1625 62.4172C99.6226 61.0794 100.373 60.1845 101.423 59.7415C102.472 59.2985 103.834 59.1509 105.518 59.2985L108.85 59.4014C110.489 59.5267 111.637 59.8176 112.294 60.2695C112.95 60.7214 113.281 61.4284 113.281 62.3994C113.281 63.2764 113.013 63.9252 112.481 64.3502C111.95 64.7708 111.07 65.0706 109.846 65.2406L107.215 65.4644C106.653 65.5449 106.264 65.6791 106.041 65.8626C105.817 66.0461 105.706 66.3593 105.706 66.7978L105.688 68.0282C105.688 68.4891 105.831 68.8337 106.117 69.0574C106.403 69.2811 106.916 69.4422 107.662 69.5317L109.708 69.7062C110.981 69.9254 111.816 70.1939 112.218 70.5116C112.62 70.8293 112.821 71.3707 112.821 72.1313C112.821 72.9502 112.611 73.5855 112.195 74.0285C111.776 74.4715 110.963 74.7937 109.748 74.9905L107.256 75.1292C106.604 75.1964 106.143 75.4111 105.871 75.7602C105.603 76.1136 105.456 76.6685 105.433 77.4336L105.38 81.1743C105.322 82.6285 105.036 83.6531 104.522 84.2482C104.009 84.8433 103.272 85.1387 102.325 85.1387C101.833 85.1387 101.378 85.0357 100.958 84.8254C100.538 84.6196 100.172 84.2124 99.8503 83.6039C99.5288 82.9999 99.2697 82.1094 99.0777 80.9461C98.8811 79.7782 98.7561 78.239 98.698 76.3195L98.5774 68.2296V68.2385Z" fill="#B000F9"/>
<path d="M115.844 68.6368C115.831 66.6412 115.943 65.017 116.179 63.7686C116.416 62.5202 116.814 61.5627 117.372 60.8915C117.935 60.2203 118.694 59.7684 119.65 59.5312C120.605 59.2941 121.798 59.1822 123.232 59.1957L126.376 59.3344C127.912 59.3478 129.02 59.6521 129.708 60.2516C130.396 60.8512 130.74 61.6029 130.74 62.5023C130.74 63.4017 130.467 64.037 129.922 64.5471C129.377 65.0572 128.444 65.3794 127.113 65.5181L124.5 65.6389C123.87 65.6837 123.451 65.8 123.236 65.9745C123.022 66.1535 122.906 66.4756 122.883 66.9365L122.83 68.0104C122.816 68.5071 122.932 68.8605 123.174 69.0753C123.415 69.2901 123.826 69.4064 124.411 69.4288L126.354 69.5138C127.452 69.5496 128.27 69.7868 128.801 70.2342C129.333 70.6772 129.601 71.2768 129.601 72.0285C129.601 72.9055 129.315 73.5319 128.743 73.8988C128.172 74.2702 127.408 74.4939 126.456 74.5744L124.755 74.6416C124.045 74.6863 123.535 74.8474 123.227 75.1159C122.919 75.3888 122.785 75.8273 122.834 76.4403L122.937 77.4605C122.982 78.0959 123.138 78.5299 123.41 78.767C123.678 79.0042 124.219 79.1339 125.036 79.1563L126.89 79.1742C128.39 79.2682 129.458 79.5545 130.092 80.0333C130.726 80.5121 131.043 81.1788 131.043 82.0334C131.043 83.0625 130.673 83.859 129.936 84.4228C129.199 84.9866 127.877 85.3356 125.974 85.4609H123.415C121.892 85.5548 120.65 85.4743 119.685 85.2282C118.725 84.9776 117.975 84.4899 117.443 83.765C116.912 83.0402 116.541 81.9976 116.336 80.6463C116.13 79.295 116.019 77.5679 116.01 75.4649L115.84 68.6234L115.844 68.6368Z" fill="#B000F9"/>
<path d="M94.2804 48.8327C93.1057 44.6133 91.8641 40.4162 90.551 36.2415C89.9525 34.4517 89.3629 33.0915 88.8046 32.1653C88.2419 31.2391 87.621 30.6126 86.9466 30.286C86.2722 29.9594 85.4504 29.7983 84.4901 29.8072C83.5924 29.8162 82.8018 30.0175 82.114 30.4113C81.4262 30.805 80.7964 31.4807 80.2202 32.4248C79.6441 33.3734 79.0724 34.6844 78.5186 36.3624C77.2814 40.2417 76.1023 44.139 74.9946 48.0586C74.3961 50.0811 74.146 51.7009 74.2174 52.9135C74.2889 54.126 74.6149 54.9896 75.2 55.5086C75.7851 56.0277 76.5489 56.2693 77.5092 56.238C77.7459 56.229 77.9692 56.2111 78.1791 56.1798C79.1304 56.0411 79.8942 55.3118 80.1577 54.3587C80.4078 53.4459 80.7205 52.3273 80.7205 52.3273C80.8723 51.7904 80.6982 51.2176 80.2783 50.8641L77.9469 48.9088C76.9643 48.081 77.5315 46.4434 78.8044 46.4434H81.3636C81.9621 46.4434 82.4936 46.0362 82.6589 45.4411L83.3556 42.9712C83.7308 41.6333 85.5754 41.6333 85.9506 42.9712L86.6429 45.4411C86.8082 46.0362 87.3396 46.4434 87.9426 46.4434H90.4974C91.7658 46.4434 92.3375 48.081 91.3549 48.9088L89.0235 50.8641C88.6081 51.2131 88.4294 51.7904 88.5813 52.3273C88.5813 52.3273 88.8537 53.3117 89.0949 54.1663C89.3852 55.2133 90.2919 55.9785 91.3505 56.0053C91.3594 56.0053 91.3639 56.0053 91.3728 56.0053C92.3063 56.0277 93.0923 55.8308 93.7266 55.4102C94.3608 54.9896 94.7538 54.2558 94.9057 53.2043C95.0531 52.1528 94.8566 50.6896 94.2893 48.8327H94.2804Z" fill="#B000F9"/>
<path d="M36.4324 0.571045H23.7434C19.476 0.571045 16.0166 4.03674 16.0166 8.3119V21.0552C16.0166 25.3304 19.476 28.7961 23.7434 28.7961H36.4324C40.6998 28.7961 44.1592 25.3304 44.1592 21.0552V8.3119C44.1592 4.03674 40.6998 0.571045 36.4324 0.571045Z" fill="#F9AC00"/>
<path d="M28.4153 28.7961H15.7263C11.4589 28.7961 7.99951 32.2618 7.99951 36.537V49.2803C7.99951 53.5555 11.4589 57.0212 15.7263 57.0212H28.4153C32.6827 57.0212 36.1421 53.5555 36.1421 49.2803V36.537C36.1421 32.2618 32.6827 28.7961 28.4153 28.7961Z" fill="#FC0D99"/>
<path d="M20.4158 56.9897H7.72683C3.45942 56.9897 0 60.4554 0 64.7306V77.4739C0 81.7491 3.45942 85.2148 7.72683 85.2148H20.4158C24.6832 85.2148 28.1426 81.7491 28.1426 77.4739V64.7306C28.1426 60.4554 24.6832 56.9897 20.4158 56.9897Z" fill="#039DF2"/>
</svg>
